<?xml version="1.0" standalone="no"?><!DOCTYPE svg PUBLIC "-//W3C//DTD SVG 1.1//EN" "http://www.w3.org/Graphics/SVG/1.1/DTD/svg11.dtd"><svg t="1704443289060" class="icon" viewBox="0 0 1024 1024" version="1.1" xmlns="http://www.w3.org/2000/svg" p-id="1894" xmlns:xlink="http://www.w3.org/1999/xlink" width="200" height="200"><path d="M698.914416 580.238815L351.544303 232.553699l2.362526-2.362527-61.819437-116.708798L156.399633 8.664959 6.536717 158.685377l104.738664 135.76651 116.551296 61.898188 2.362527-2.362526 347.370113 347.685117-52.369333 52.369332 235.54387 235.780122c45.203003 45.203003 121.3551 45.203003 166.558102 0l59.535662-59.535662a119.386328 119.386328 0 0 0 0-166.715604L751.283749 527.790732l-52.369333 52.448083z m254.601582-166.715604c76.073346-76.230848 90.406005-192.939646 42.761725-285.786928l-154.587969 154.824222-102.376139-102.376139L893.980335 27.64392a246.332739 246.332739 0 0 0-285.471924 42.840476C544.168945 134.902613 525.189984 225.46612 546.531472 306.343269L23.231902 830.272846a79.065879 79.065879 0 0 0 0 111.826243l61.819438 57.251887a78.908378 78.908378 0 0 0 111.826243 0l523.457071-523.929577c80.877149 23.782764 168.920628 2.362526 233.102593-61.898188z" fill="#32C5FF" p-id="1895"></path></svg>